<svg xmlns="http://www.w3.org/2000/svg" xmlns:xlink="http://www.w3.org/1999/xlink">
  <symbol id="play-v3" viewBox="0 0 24 24">
    <path fill="currentColor" stroke="none" d="M8 5v14l11-7z"/>
  </symbol>
  <symbol id="reorder-v3" viewBox="0 0 24 24">
    <path fill="currentColor" stroke="none" stroke-width="0" d="M10 6c1.1 0 2-.9 2-2s-.9-2-2-2-2 .9-2 2 .9 2 2 2zm0 6c1.1 0 2-.9 2-2s-.9-2-2-2-2 .9-2 2 .9 2 2 2zm0 6c1.1 0 2-.9 2-2s-.9-2-2-2-2 .9-2 2 .9 2 2 2zm4-12c1.1 0 2-.9 2-2s-.9-2-2-2-2 .9-2 2 .9 2 2 2zm0 6c1.1 0 2-.9 2-2s-.9-2-2-2-2 .9-2 2 .9 2 2 2zm0 6c1.1 0 2-.9 2-2s-.9-2-2-2-2 .9-2 2 .9 2 2 2z"/>
  </symbol>
  <symbol id="artist" viewBox="0 0 24 24">
    <path fill="currentColor" stroke="none" d="M12 12c2.21 0 4-1.79 4-4s-1.79-4-4-4-4 1.79-4 4 4 1.79 4 4zm0 2c-2.67 0-8 1.34-8 4v2h16v-2c0-2.66-5.33-4-8-4z"/>
  </symbol>
  <symbol id="playlist" viewBox="0 0 24 24">
    <path fill="currentColor" stroke="none" d="M19 9H2v2h17V9zm0-4H2v2h17V5zM2 15h13v-2H2v2zm15-2v6l5-3-5-3z"/>
  </symbol>
  <symbol id="plus" viewBox="0 0 24 24">
    <path stroke="currentColor" stroke-width="2" stroke-linecap="round" stroke-linejoin="round" fill="none" d="M12 4v16m8-8H4"/>
  </symbol>
  <symbol id="add-song-queue" viewBox="0 0 24 24">
    <path stroke="currentColor" stroke-width="2" stroke-linecap="round" stroke-linejoin="round" fill="none" d="M12 6v6m0 0v6m0-6h6m-6 0H6"/>
  </symbol>
  <symbol id="add-album-queue" viewBox="0 0 24 24">
    <path stroke="currentColor" stroke-width="2" stroke-linecap="round" stroke-linejoin="round" fill="none" d="M12 9v3m0 0v3m0-3h3m-3 0H9m12 0a9 9 0 11-18 0 9 9 0 0118 0z"/>
  </symbol>
  <symbol id="add-to-playlist" viewBox="0 0 24 24">
    <path stroke="currentColor" stroke-width="2" stroke-linecap="round" stroke-linejoin="round" fill="none" d="M9 19V6l12-3v13M9 19c0 1.105-1.343 2-3 2s-3-.895-3-2 1.343-2 3-2 3 .895 3 2zm12-3c0 1.105-1.343 2-3 2s-3-.895-3-2 1.343-2 3-2 3 .895 3 2zM9 10l12-3"/>
    <circle cx="18" cy="18" r="5" fill="#e8d5b1"/>
    <path stroke="currentColor" stroke-width="2" stroke-linecap="round" d="M18 16v4M16 18h4"/>
  </symbol>
  <symbol id="check" viewBox="0 0 24 24">
    <path stroke="currentColor" stroke-width="2" stroke-linecap="round" stroke-linejoin="round" fill="none" d="M5 13l4 4L19 7"/>
  </symbol>
  <symbol id="chevron-down" viewBox="0 0 24 24">
    <path stroke="currentColor" stroke-width="2" stroke-linecap="round" stroke-linejoin="round" fill="none" d="M19 9l-7 7-7-7"/>
  </symbol>
  <symbol id="edit" viewBox="0 0 24 24">
    <path stroke="currentColor" stroke-width="2" stroke-linecap="round" stroke-linejoin="round" fill="none" d="M15.232 5.232l3.536 3.536m-2.036-5.036a2.5 2.5 0 113.536 3.536L6.5 21.036H3v-3.572L16.732 3.732z"/>
  </symbol>
  <symbol id="delete" viewBox="0 0 24 24">
    <path stroke="currentColor" stroke-width="2" stroke-linecap="round" stroke-linejoin="round" fill="none" d="M19 7l-.867 12.142A2 2 0 0116.138 21H7.862a2 2 0 01-1.995-1.858L5 7m5 4v6m4-6v6m1-10V4a1 1 0 00-1-1h-4a1 1 0 00-1 1v3M4 7h16"/>
  </symbol>
  <symbol id="remove" viewBox="0 0 24 24">
    <path stroke="currentColor" stroke-width="2" stroke-linecap="round" stroke-linejoin="round" fill="none" d="M6 18L18 6M6 6l12 12"/>
  </symbol>
  <symbol id="search" viewBox="0 0 24 24">
    <path stroke="currentColor" stroke-width="2" stroke-linecap="round" stroke-linejoin="round" fill="none" d="M21 21l-6-6m2-5a7 7 0 11-14 0 7 7 0 0114 0z"/>
  </symbol>
  <symbol id="close" viewBox="0 0 24 24">
    <path stroke="currentColor" stroke-width="2" stroke-linecap="round" stroke-linejoin="round" fill="none" d="M6 18L18 6M6 6l12 12"/>
  </symbol>
  <symbol id="back" viewBox="0 0 24 24">
    <path stroke="currentColor" stroke-width="2" stroke-linecap="round" stroke-linejoin="round" fill="none" d="M10 19l-7-7m0 0l7-7m-7 7h18"/>
  </symbol>
  <symbol id="album-placeholder" viewBox="0 0 24 24">
    <path fill="currentColor" stroke="none" d="M12 2C6.48 2 2 6.48 2 12s4.48 10 10 10 10-4.48 10-10S17.52 2 12 2zm0 14.5c-2.49 0-4.5-2.01-4.5-4.5S9.51 7.5 12 7.5s4.5 2.01 4.5 4.5-2.01 4.5-4.5 4.5zm0-5.5c-.55 0-1 .45-1 1s.45 1 1 1 1-.45 1-1-.45-1-1-1z"/>
  </symbol>
</svg>
